<?xml version="1.0" encoding="UTF-8"?><svg id="Layer_1" xmlns="http://www.w3.org/2000/svg" viewBox="0 0 960 526"><defs><style>.cls-1{fill:#fff;stroke:#000;stroke-miterlimit:10;stroke-width:40px;}</style></defs><path class="cls-1" d="M272.42,20.1c-176.2,.25-190.83,.39-196.31,1.86-27.25,7.28-46.82,26.03-54.4,52.13-1.63,5.6-1.7,14.42-1.7,189.05,0,206.31-.7,187.2,7.47,203.38,9.44,18.68,26.45,32.24,47.5,37.85,5.8,1.55,26.22,1.63,405.02,1.63s399.25-.09,405.02-1.6c8.93-2.35,22.1-9,29.23-14.77,10.84-8.77,20.15-23.2,24.09-37.34,1.56-5.62,1.66-16.71,1.66-189.14s-.08-183.45-1.7-189.05c-7.51-25.89-26.2-45.19-52.71-52.73-6.65-1.89-405.55-1.26-613.17-1.26"/><path d="M118.1,92.53c-1.81,.65-4.25,2.07-5.44,3.19-4.59,4.3-4.58,4.2-4.58,40.93,0,33.01,.07,34.43,1.77,37.46,.97,1.73,3.2,4.13,4.93,5.31l3.15,2.16,32.88,.26c18.06,.14,34.17,.02,35.73-.27,3.24-.6,8.32-4.74,10.16-8.29,1.78-3.43,1.86-68.53,.09-72.76-1.51-3.6-5.75-7.17-9.9-8.33-5.19-1.44-64.62-1.16-68.79,.33h0Z"/><path d="M249.27,92.68c-3.88,1.38-7.03,4.09-9.08,7.8-1.26,2.28-1.43,6.55-1.43,36.17v33.59l2.37,4c1.68,2.84,3.47,4.54,6.16,5.86,3.7,1.81,4.56,1.85,37.81,1.59l34.02-.26,3.27-2.6c6.46-5.14,6.37-4.55,6.37-42.01,0-31.09-.11-33.64-1.64-36.6-2.1-4.07-4.3-6.03-8.44-7.51-4.74-1.69-64.68-1.72-69.42-.03h0Z"/><path d="M379.93,92.74c-4.16,1.52-8.39,6.08-9.56,10.29-.71,2.55-.92,13-.74,35.83l.26,32.23,2.41,3.69c4.5,6.89,4.88,6.95,42.04,6.95,27.29,0,32.94-.21,35.61-1.34,4.29-1.81,6.14-3.58,8.03-7.67,1.45-3.14,1.58-6.22,1.58-36,0-31.5-.06-32.69-1.8-36.3-1.08-2.23-3.22-4.67-5.32-6.05l-3.52-2.32-33.08-.17c-24.29-.13-33.84,.1-35.92,.87h0Z"/><path d="M511.34,92.49c-3.86,1.16-7.28,4.15-9.12,7.96-1.71,3.54-1.78,5.02-1.78,36.27s.14,32.87,1.58,36.01c1.89,4.09,3.74,5.86,8.03,7.67,2.67,1.13,8.33,1.34,35.62,1.34,37.17,0,37.55-.06,42.05-6.95l2.41-3.69,.26-32.23c.18-22.83-.03-33.28-.74-35.84-1.16-4.21-5.4-8.75-9.56-10.26-3.3-1.19-64.89-1.44-68.75-.28h0Z"/><path d="M642.4,92.42c-3.95,1.18-7.73,4.43-9.39,8.07-1.47,3.23-1.6,6.18-1.6,36.16s.13,32.93,1.62,36.16c1.89,4.1,5.08,6.84,9.46,8.12,2.01,.59,14.56,.81,35.78,.65l32.68-.26,3.52-2.31c6.64-4.35,6.7-4.74,6.96-40.38,.24-33.84,0-36.48-3.9-41.15-4.85-5.81-5.63-5.93-41.02-5.84-17.52,.04-32.82,.39-34.1,.77h0Z"/><path d="M772.47,92.89c-4.11,1.47-7.29,4.33-8.83,7.95-1.75,4.11-1.74,68.7,.01,72.06,1.61,3.08,5.53,6.71,8.48,7.83,1.54,.59,14.1,.91,35.09,.91,31.45,0,32.83-.07,36.37-1.8,2.48-1.21,4.38-2.99,5.83-5.44l2.14-3.64v-34.02c0-37.1,.05-36.72-5.14-41.05-1.44-1.2-4.11-2.62-5.83-3.1-5.14-1.43-63.99-1.17-68.12,.3h0Z"/><path d="M119.43,223.95c-3.61,1.57-6.6,4.25-8.21,7.37-1.81,3.49-1.77,69.32,.05,72.84,1.7,3.3,5.94,6.68,9.72,7.76,2.18,.63,22.21,.83,63.78,.65l60.6-.26,3.69-2.41c6.89-4.5,6.96-4.89,6.96-42.26,0-29.89-.13-32.93-1.59-36.08-.87-1.89-2.4-4.16-3.39-5.04-4.34-3.86-4.98-3.89-68.46-3.89-51.8,0-60.55,.18-63.14,1.31h0Z"/><path d="M313.38,224.25c-1.97,.91-4.61,3.04-6.01,4.85l-2.49,3.22-.26,34.2c-.24,32.35-.17,34.37,1.39,37.37,2.14,4.12,4.36,6.1,8.48,7.57,4.24,1.52,63.16,1.8,68.48,.33,4.54-1.26,9.46-6.27,10.69-10.91,.68-2.54,.91-13.47,.74-35.18-.27-35.61-.34-36-6.97-40.34l-3.52-2.31-33.51-.21c-31.32-.2-33.74-.11-37.03,1.42h0Z"/><path d="M444.44,224.26c-3.94,1.85-6.79,4.69-8.08,8.08-.59,1.55-.92,14.06-.92,35.31s.32,33.76,.92,35.31c1.29,3.39,4.14,6.23,8.08,8.08,3.13,1.47,6.17,1.61,35.4,1.61,34.37,0,35.64-.14,40.37-4.57q4.37-4.09,4.37-40.43t-4.37-40.43c-4.73-4.43-6-4.57-40.37-4.57-29.23,0-32.27,.14-35.4,1.61h0Z"/><path d="M574.23,224.39c-2.54,1.24-4.41,3.05-6.01,5.79l-2.32,3.99v33.47c0,36.9-.08,36.32,5.58,41.05,4.57,3.82,7.29,4.07,41.45,3.83,35.61-.26,35.13-.18,39.81-6.35l2.41-3.18,.26-33.13c.14-18.19,.03-34.36-.26-35.87-.69-3.67-4.38-7.9-8.58-9.83-3.13-1.44-6.26-1.58-36.04-1.58-31.5,0-32.74,.06-36.3,1.8h0Z"/><path d="M713.08,224.17c-4.09,1.89-5.86,3.74-7.67,8.03-1.12,2.67-1.34,8.37-1.34,35.57,0,31.24,.06,32.53,1.8,36.13,1.08,2.23,3.22,4.67,5.32,6.05l3.52,2.32,60.38,.26c40.34,.17,61.49-.04,63.72-.64,3.95-1.06,8.16-4.36,9.92-7.77,1.82-3.52,1.82-69.31,0-72.78-1.8-3.43-5.87-6.95-9.16-7.9-1.78-.52-26.26-.85-62.99-.85-56.47,0-60.28,.09-63.51,1.58h0Z"/><path d="M117.41,355.91c-3.6,1.7-5.09,3.03-7.17,6.43-1.79,2.93-1.84,3.86-1.84,37.14,0,37.31-.06,36.83,5.15,41.19,4.57,3.83,7.29,4.08,41.42,3.83,35.59-.26,35.11-.18,39.79-6.34l2.41-3.17,.26-33.96c.14-18.7,.05-34.81-.21-35.85-.7-2.8-5.62-8.03-8.79-9.36-4.12-1.72-67.33-1.63-71.01,.1h0Z"/><path d="M275.38,356.49c-8.35,4.12-8.97,7.44-8.6,46.43,.25,26.56,.46,30.48,1.76,32.82,2.02,3.65,6.07,6.91,9.93,7.98,4.62,1.28,398.72,1.27,403.35-.02,4.37-1.21,9.4-6.25,10.62-10.62,1.28-4.63,1.25-62.21-.04-66.84-1.36-4.88-3.91-8.08-7.92-9.94-3.39-1.57-10.37-1.63-204.46-1.63h-200.95l-3.68,1.82h0Z"/><path d="M771.39,355.79c-3.09,1.35-7.93,6.6-8.62,9.35-.26,1.04-.36,17.17-.22,35.89l.26,34,2.41,3.18c4.68,6.17,4.2,6.09,39.83,6.35,34.25,.25,36.89,0,41.55-3.91,5.01-4.19,5.07-4.67,5.07-41.5v-33.65l-2.15-3.65c-1.45-2.46-3.35-4.24-5.84-5.45-3.55-1.73-4.94-1.8-36.7-1.76-25.33,.03-33.61,.31-35.59,1.17h0Z"/></svg>